<svg xmlns="http://www.w3.org/2000/svg" viewBox="0 0 100 100">
<path fill="#FFFFFF" d="M41.2,48.5H26c-4,0-7.3-3.2-7.3-7.3V24.9c0-4,3.2-7.3,7.3-7.3h15.2c4,0,7.3,3.2,7.3,7.3v16.3
C48.5,45.3,45.3,48.5,41.2,48.5 M27.6,23.4c-1.7,0-3.1,1.5-3.1,3.1v13c0,1.7,1.5,3.1,3.1,3.1h12.2c1.7,0,3.1-1.5,3.1-3.1v-13
c0-1.7-1.5-3.1-3.1-3.1H27.6"/>
<path fill="#FFFFFF" d="M74,48.5H58.8c-4,0-7.3-3.2-7.3-7.3V24.9c0-4,3.2-7.3,7.3-7.3H74c4,0,7.3,3.2,7.3,7.3v16.3
C81.3,45.3,78.1,48.5,74,48.5 M60.3,23.4c-1.7,0-3.1,1.5-3.1,3.1v13c0,1.7,1.5,3.1,3.1,3.1h12.2c1.7,0,3.1-1.5,3.1-3.1v-13
c0-1.7-1.5-3.1-3.1-3.1H60.3"/>
<path fill="#FFFFFF" d="M41.2,82.3H26c-4,0-7.3-3.2-7.3-7.3V58.8c0-4,3.2-7.3,7.3-7.3h15.2c4,0,7.3,3.2,7.3,7.3V75
C48.5,79.1,45.3,82.3,41.2,82.3 M27.6,57.3c-1.7,0-3.1,1.5-3.1,3.1v13c0,1.7,1.5,3.1,3.1,3.1h12.2c1.7,0,3.1-1.5,3.1-3.1v-13
c0-1.7-1.5-3.1-3.1-3.1C39.8,57.3,27.6,57.3,27.6,57.3z"/>
<path fill="#FFFFFF" d="M74,82.3H58.8c-4,0-7.3-3.2-7.3-7.3V58.8c0-4,3.2-7.3,7.3-7.3H74c4,0,7.3,3.2,7.3,7.3V75
C81.3,79.1,78.1,82.3,74,82.3 M60.3,57.3c-1.7,0-3.1,1.5-3.1,3.1v13c0,1.7,1.5,3.1,3.1,3.1h12.2c1.7,0,3.1-1.5,3.1-3.1v-13
c0-1.7-1.5-3.1-3.1-3.1C72.5,57.3,60.3,57.3,60.3,57.3z"/>
</svg>
