<?xml version="1.0" encoding="utf-8"?>
<!-- Generator: Adobe Illustrator 25.0.0, SVG Export Plug-In . SVG Version: 6.00 Build 0)  -->
<svg version="1.1" id="Layer_1" xmlns="http://www.w3.org/2000/svg" xmlns:xlink="http://www.w3.org/1999/xlink" x="0px" y="0px"
	 width="100px" height="100px" viewBox="0 0 100 100" enable-background="new 0 0 100 100" xml:space="preserve">
<path fill="#DEBD4C" d="M98,30c0-0.1-0.1-0.2-0.2-0.3c-0.1,0-0.1,0-0.2,0c-4.7,0.5-14,1.6-23.6,4.3c-1.3,0.4-2.6,0.8-3.9,1.2
	c-1.1-1.7-2.3-3.4-3.6-5.2C60.6,22,54,15.4,50.6,12.3c-0.1-0.1-0.3-0.1-0.4,0C46.9,15.4,40.3,22,34.4,30c-1.3,1.7-2.5,3.4-3.6,5.2
	c-1.2-0.4-2.5-0.8-3.9-1.2C17.3,31.3,8,30.2,3.3,29.7c-0.1,0-0.1,0-0.2,0C3,29.8,2.9,29.8,2.9,30c0,4.6,0.2,13.6,1.9,23.2
	c1.4,8,3.6,14.7,6.4,19.9c3.7,6.9,8.6,11.3,14.5,13c5.1,1.5,9.9,1.7,14.2,0.4c2.5-0.7,4.8-1.9,6.8-3.6c1.1,0.1,2.3,0.1,3.6,0.1
	c1.2,0,2.5,0,3.6-0.1c2,1.7,4.3,2.8,6.8,3.6c2,0.6,4,0.9,6.2,0.9c2.6,0,5.3-0.4,8.1-1.3c6-1.8,10.8-6.2,14.5-13
	c2.8-5.2,5-11.9,6.4-19.9C97.7,43.6,98,34.5,98,30 M25.6,39c0.8,0.2,1.7,0.5,2.5,0.8l0,0c0,0.1-0.1,0.1-0.1,0.1V40
	c-1.7,3-2.9,6-3.8,8.8c-2.5,7.6-2.3,14.2,0.5,19.9c2.5,4.8,5.7,8.5,9.7,10.8c1.6,0.9,3.2,1.6,5,2.1c-3.5,1.2-7.6,1.1-12-0.2
	C16.7,78.1,12,63.8,10,52.3C9,47.2,8.4,41.5,8.2,35.6C14.4,36.3,20,37.5,25.6,39 M91,52.3c-2.1,11.5-6.7,25.8-17.4,29
	c-4.4,1.3-8.5,1.4-12,0.1c1.7-0.5,3.4-1.1,5-2.1c4-2.3,7.3-6,9.7-10.8c2.8-5.6,3-12.3,0.5-19.9c-0.9-2.8-2.3-5.8-4-8.9h0.1
	c0.9-0.3,1.7-0.5,2.5-0.7c5.6-1.5,11.2-2.7,17.3-3.5C92.5,41.5,91.9,47.2,91,52.3 M45.5,77.8c-2.5-0.5-4.2-1-4.6-1.1
	c-0.1,0-0.1,0-0.1,0c-0.7-0.2-1.3-0.5-1.9-0.7c-0.2-0.1-0.4-0.1-0.5-0.3c-0.1,0-0.1-0.1-0.2-0.1c-0.3-0.1-0.5-0.3-0.7-0.4
	c0,0-0.1,0-0.1-0.1h-0.1c-0.2-0.1-0.5-0.3-0.7-0.4l-0.1-0.1l-0.1-0.1c-0.2-0.1-0.5-0.3-0.7-0.5c-0.1-0.1-0.1-0.1-0.1-0.1h-0.1
	c-0.3-0.2-0.5-0.3-0.7-0.5l-0.1-0.1c-0.2-0.1-0.4-0.3-0.6-0.5l0,0c-0.1-0.1-0.1-0.1-0.1-0.1c-0.2-0.2-0.4-0.4-0.6-0.6
	c-0.1-0.1-0.1-0.1-0.1-0.1l-0.1-0.1c-0.2-0.2-0.4-0.4-0.5-0.6l-0.1-0.1l-0.1-0.1c-0.2-0.2-0.4-0.5-0.6-0.7c-0.1-0.1-0.1-0.1-0.2-0.2
	c-0.2-0.3-0.4-0.5-0.5-0.7c0-0.1-0.1-0.1-0.1-0.1l-0.1-0.1c-0.1-0.2-0.3-0.5-0.5-0.7l-0.1-0.2c0-0.1-0.1-0.1-0.1-0.1
	c-0.1-0.3-0.3-0.5-0.5-0.9c-0.1-0.1-0.1-0.1-0.1-0.3v-0.1c-0.1-0.3-0.3-0.5-0.5-0.8v-0.1c0,0,0,0,0-0.1v-0.1v-0.1
	c-0.1-0.1-0.1-0.3-0.2-0.5c-0.1-0.1-0.1-0.1-0.1-0.3s-0.1-0.3-0.2-0.5c0-0.1-0.1-0.1-0.1-0.2c-0.1-0.2-0.1-0.3-0.2-0.5
	c0-0.1-0.1-0.1-0.1-0.3c-0.1-0.1-0.1-0.3-0.1-0.5v-0.1c0-0.1,0-0.1,0-0.1c-0.1-0.2-0.1-0.4-0.1-0.6c0-0.1-0.1-0.1-0.1-0.2
	c-0.1-0.2-0.1-0.3-0.1-0.5v-0.1v-0.1c0-0.1,0-0.1,0-0.2l0,0c-0.1-0.4-0.1-0.7-0.1-1.1v-0.1c-1.1-9.2,5.2-19.9,10.6-27.3
	c4.1-5.6,8.7-10.5,11.9-13.7c3.2,3.2,7.7,8.1,11.9,13.7c5.4,7.4,11.7,18,10.9,27.3l0,0l0,0c0,0,0,0,0,0.1v0.1c0,0.2-0.1,0.3-0.1,0.5
	c0,0.1,0,0.1,0,0.2c0,0.3-0.1,0.5-0.1,0.7V62v0.1c0,0.2-0.1,0.3-0.1,0.5c0,0.1,0,0.1-0.1,0.2c-0.1,0.2-0.1,0.4-0.1,0.6
	c0,0.1,0,0.1,0,0.1v0.1c-0.1,0.1-0.1,0.3-0.1,0.5c0,0.1-0.1,0.1-0.1,0.3c-0.1,0.2-0.1,0.3-0.2,0.5c0,0.1-0.1,0.1-0.1,0.2
	c-0.1,0.1-0.1,0.3-0.2,0.5c-0.1,0.1-0.1,0.1-0.1,0.3c-0.1,0.1-0.1,0.3-0.2,0.5v0.1v0.1c0,0,0,0,0,0.1v0.1c-0.1,0.3-0.3,0.5-0.5,0.8
	v0.1c-0.1,0.1-0.1,0.1-0.1,0.2c-0.2,0.3-0.3,0.6-0.5,0.9c0,0.1-0.1,0.1-0.1,0.1l-0.1,0.1c-0.1,0.3-0.3,0.5-0.5,0.7l-0.1,0.1
	c0,0.1-0.1,0.1-0.1,0.1c-0.2,0.3-0.3,0.5-0.5,0.7c-0.1,0.1-0.1,0.1-0.2,0.2c-0.2,0.3-0.4,0.5-0.6,0.7l-0.1,0.1l-0.1,0.1
	c-0.2,0.2-0.3,0.4-0.5,0.6L68,71.9c-0.1,0.1-0.1,0.1-0.1,0.1c-0.2,0.2-0.4,0.4-0.6,0.6c-0.1,0.1-0.1,0.1-0.1,0.1h-0.1
	c-0.2,0.2-0.5,0.4-0.6,0.5l-0.1,0.1c-0.2,0.1-0.4,0.3-0.7,0.5h-0.1c-0.1,0.1-0.1,0.1-0.1,0.1c-0.3,0.2-0.5,0.3-0.7,0.5l-0.1,0.1
	l-0.1,0.1c-0.2,0.1-0.5,0.3-0.7,0.4H64c0,0-0.1,0-0.1,0.1c-0.3,0.1-0.5,0.3-0.7,0.4c-0.1,0-0.1,0.1-0.2,0.1
	c-0.2,0.1-0.4,0.1-0.5,0.3c-0.6,0.3-1.2,0.5-1.9,0.7c-0.1,0-0.1,0-0.1,0c-0.3,0.2-2.1,0.6-4.6,1.1c-1.7,0.3-3.3,0.5-5,0.5
	C48.9,78.2,47.1,78.1,45.5,77.8"/>
<path fill="#DEBD4C" d="M50.2,73.8c-2.7,0-5.4-0.7-8.1-2.2c-0.9-0.5-1.5-0.7-1.9-0.7c-0.6,0-0.9,0.4-1,1.3l-0.1,0.9H38V62.8h1.1
	c0.4,3.2,1.5,5.5,3.5,7c2,1.5,4.4,2.3,7.1,2.3c2.7,0,4.8-0.7,6.2-2.2c1.4-1.5,2.1-3.2,2.1-5.2c0-3.2-1.9-5.6-5.5-7.2l-7.3-3.2
	c-2.2-1-3.8-2.3-5-4s-1.7-3.5-1.7-5.5c0-3,1-5.6,3-7.7c2-2.1,4.9-3.2,8.7-3.2c2.2,0,4.5,0.7,6.8,2.2c0.8,0.5,1.3,0.7,1.6,0.7
	c0.5,0,0.8-0.4,0.9-1.3l0.1-1.3h1.2v10.6h-1.1c-0.3-3.2-1.3-5.5-3-7c-1.7-1.5-3.8-2.3-6.2-2.3c-2.5,0-4.3,0.7-5.6,2s-2,2.8-2,4.6
	c0,1.7,0.5,3.2,1.4,4.6c0.9,1.3,2.3,2.4,4.1,3.2l7.4,3.2c2.5,1.1,4.3,2.5,5.6,4.3c1.3,1.8,1.9,3.7,1.9,5.8c0,2.9-1.2,5.4-3.5,7.6
	C57.2,72.7,54.1,73.8,50.2,73.8"/>
</svg>
