<?xml version="1.0" encoding="utf-8"?>
<!-- Generator: Adobe Illustrator 25.0.0, SVG Export Plug-In . SVG Version: 6.00 Build 0)  -->
<svg version="1.1" id="Layer_1" xmlns="http://www.w3.org/2000/svg" xmlns:xlink="http://www.w3.org/1999/xlink" x="0px" y="0px"
	 width="100px" height="100px" viewBox="0 0 100 100" enable-background="new 0 0 100 100" xml:space="preserve">
<g>
	<path fill="#DDBD48" d="M3.4,67.7c1.3-8.2,6.7-17,16.2-26.5C28.9,32,38.7,24.9,49.1,20c1.8-1.1,3-0.8,3.6,1c0.4,1.1-0.3,2-2.3,2.7
		c-11.9,6.4-22.2,17-30.8,31.8c5.3-0.9,9.4,0,12.4,2.7c3,2.6,4.2,5.9,3.5,9.6c-0.7,3.5-2.9,6.6-6.6,9.3c-3.8,2.7-7.7,4-11.9,4
		s-7.6-1.3-10.3-3.8C4,74.7,2.9,71.5,3.4,67.7z M47.1,67.7c1.3-8.2,6.7-16.9,16.2-26.2c4.9-4.9,9.7-9.1,14.6-12.6s9.8-6.5,14.9-9
		c1.8-1.1,3-0.8,3.7,1c0.4,1.1-0.2,2-2,2.7c-12.6,6.4-23,17-31.1,31.8c5.3-0.9,9.4-0.1,12.4,2.5c3,2.5,4.1,5.8,3.5,9.8
		c-0.7,3.5-2.9,6.6-6.6,9.3c-3.8,2.7-7.7,4-11.9,4s-7.6-1.3-10.3-4C47.8,74.4,46.7,71.3,47.1,67.7z"/>
</g>
</svg>
