<svg xmlns="http://www.w3.org/2000/svg" x="0px" y="0px"
width="50px" height="50px" viewBox="0 0 50 50" enable-background="new 0 0 50 50" xml:space="preserve">
<path fill="#DDBD48" d="M23.8,22.9V4c0-0.4,0.4-0.8,0.8-0.8h0.5c0.4,0,0.8,0.4,0.8,0.8v18.8c0,0.4,0.4,0.8,0.8,0.8h19.2
c0.4,0,0.8,0.4,0.8,0.8v0.5c0,0.4-0.4,0.8-0.8,0.8h-19c-0.4,0-0.8,0.4-0.8,0.8v19.3c0,0.4-0.4,0.8-0.8,0.8h-0.5
c-0.4,0-0.8-0.4-0.8-0.8V26.5c0-0.4-0.4-0.8-0.8-0.8H4c-0.4,0-0.8-0.4-0.8-0.8v-0.5c0-0.4,0.4-0.8,0.8-0.8h19
C23.5,23.7,23.8,23.3,23.8,22.9z"/>
</svg>
