<?xml version="1.0" encoding="utf-8"?>
<!-- Generator: Adobe Illustrator 25.0.0, SVG Export Plug-In . SVG Version: 6.00 Build 0)  -->
<svg version="1.1" id="Layer_1" xmlns="http://www.w3.org/2000/svg" xmlns:xlink="http://www.w3.org/1999/xlink" x="0px" y="0px"
	 width="500px" height="200px" viewBox="0 0 500 200" enable-background="new 0 0 500 200" xml:space="preserve">
<g>
	<path fill="#004A8F" d="M153.6,25.7c1.8-0.8,4.1-1.6,7.1-2.3c3-0.7,5.9-1.2,8.7-1.4c2.9-0.2,5.3-0.2,7.4,0.2
		c2.1,0.4,3.1,1.2,3.1,2.5c-2.2,0.3-5.3,0.4-9.1,0.2c-3.8-0.2-7.3,0.4-10.5,1.7c-2.7,1.3-5.4,2.9-8,4.9c-2.7,2-5.1,4.2-7.6,6.6
		c-2.4,2.4-4.6,4.9-6.6,7.4c-2,2.6-3.7,5-5.1,7.2c-1.3,2.2-2.8,4.9-4.5,7.9c-1.8,3-3.7,6.6-5.8,10.5L94,123.9
		c-4,7.2-7.8,13.3-11.4,18.3c-3.6,5-7,9.1-10.2,12.3c-4.8,4.5-10.6,8.2-17.5,11.3c12,1.8,23.3,3,33.9,3.8c10.6,0.8,20.6,1,29.8,0.7
		c29.8-1.1,52.6-7.6,68.3-19.4c8.1-6.2,15.6-14.8,22.5-25.6c1-1.4,1.7-1.7,2.2-0.7c0.2,0.2,0.1,0.6-0.3,1.4
		c-4.6,8-10.1,15.6-16.3,22.8c-10.7,12.1-20.8,20-30.4,23.7c-9.6,3.7-21.6,5.5-35.9,5.5c-11.3,0-25.2-1.2-41.7-3.6
		c-8.3-1.1-15.6-2.2-22-3.4c-6.4-1.1-11.9-2.2-16.5-3.4c-2.7,0.8-5.4,1.4-8.1,1.7c-2.7,0.3-5.6,0.4-8.6,0.2
		c-4.2-0.5-7.4-1.2-9.8-2.2c-2.4-1-4.2-2-5.5-3.2c-1.3-1.2-2.1-2.4-2.5-3.7c-0.4-1.3-0.7-2.6-0.8-3.8c2.6-2.4,5.2-3.5,8-3.4
		c2.8,0.2,5.6,0.8,8.5,2s5.6,2.6,8.1,4.2c2.6,1.6,4.9,2.6,7,3.1c1.3-0.2,2.7-0.9,4.3-2.2c1.6-1.3,3.2-2.8,4.9-4.7s3.3-3.8,4.8-6
		c1.5-2.2,2.9-4.2,4.2-6.1l6.5-10.3l6-9.3l21.3-38.8c12.3-22.5,25.6-39.1,40-49.8C142.7,31,148.4,27.7,153.6,25.7z M177.3,30.9
		c0.3-0.6,0.7-1.4,1.2-2.2c0.5-0.8,0.9-1.8,1.4-2.9l1-2.2l1.4-2.6c0.8-2.4,1.1-3.9,1-4.6c0-0.3,0.1-0.5,0.3-0.5
		c0.5-0.3,1.8,0.3,3.8,1.9c1.6,1.3,2.6,2.3,3.1,3.1c0.5,1.8-1.7,5.3-6.5,10.5c-1,1.3-1.9,2.5-2.8,3.7c-0.9,1.2-1.6,2.4-2.3,3.5
		c-1.8,2.9-2.7,5.6-2.7,8.1c0.2,0.5,0,0.9-0.5,1.2c-0.5,0-0.8-0.3-1-1c-0.6-2.9-0.5-6.5,0.5-10.8c0.3-1,0.6-1.9,0.9-2.9
		C176.7,32.6,177,31.7,177.3,30.9z"/>
	<path fill="#004A8F" d="M213.8,127c-1.9,3.5-3.4,7.6-4.3,12.2c-0.9,4.6-1.1,8.9-0.4,12.7c0.7,3.8,2.4,6.9,5,9.2
		c2.7,2.3,6.7,2.9,12.1,1.8c9-1.4,16.9-6.9,24-16.3c7.2-9.9,9.8-19.9,7.9-29.9c-1.6-6.7-7.1-11.2-16.5-13.4c-0.5-2.4,0.3-4.4,2.2-6
		c0.8-1,1.8-1.6,3.1-2c1.3-0.4,2.6-0.7,4.1-0.8c4.5-1,8.9-0.3,13.2,1.9c4.2,1.4,6.9,4.8,8.1,10.1c2.4,10.2-1.8,22.4-12.7,36.4
		c-10.5,13.9-24.6,22.3-42.1,25.2c-13.6,2.1-21.3-1.2-23.2-9.8c-1.4-7.2,1.4-16.3,8.4-27.3c1.8-2.6,3.9-5.3,6.5-8.1
		c2.6-2.9,5.3-5.7,8.1-8.5c2.9-2.8,5.9-5.4,9.1-7.8c3.2-2.4,6.4-4.6,9.6-6.5l2.7,1.7c-5,3.2-9.7,7.2-14.4,12
		C219.4,118.4,216,122.8,213.8,127z"/>
	<path fill="#004A8F" d="M312.9,82.3c1.3,0.7,2.6,1.5,4.1,2.3c1.4,0.8,2.9,1.3,4.5,1.4c1.6,0.2,3.3-0.6,5-2.2h0.5l-11.7,21.1h17.7
		c1.8,0,2.2,0.6,1.4,1.9c-0.6,1.1-1.7,1.7-3.1,1.7h-18.2l-19.4,35.7c-6.6,11.3-7.8,17.7-3.8,19.2c3.2,1.3,7.9,0.3,14.1-2.9
		c13.6-6.7,25.5-18.6,36-35.7c0.6-1,1.2-1.2,1.7-0.8c0.5,0.4,0.5,1,0.2,1.8c-10.4,17.1-22.5,29.6-36.2,37.6
		c-6.1,3.7-11.6,5.7-16.6,6.1c-5,0.4-8.9-0.7-11.7-3.4c-2.8-2.6-4-6.9-3.6-12.7c0.4-5.8,3.2-13.2,8.3-22.2l12.7-22.8h-13.9
		c-1.6,0-2.1-0.6-1.7-1.9c0.2-1.1,1.1-1.7,2.9-1.7h14.6l12.9-23C310.5,81.5,311.7,81.6,312.9,82.3z"/>
	<path fill="#004A8F" d="M364.7,148.8c-2.7,2.7-5.6,5.3-8.5,7.8c-2.9,2.5-6,4.7-9.2,6.8c-6.6,4.2-11.8,6.2-15.8,6.2
		c-1.8,0-3.4-0.6-4.9-1.7c-1.5-1.1-2.6-2.9-3.2-5.3c-0.6-2.4-0.6-5.4,0.2-9c0.8-3.6,2.6-7.9,5.3-12.8l25.6-46.5
		c2.2,1.4,4.1,2.5,5.5,3.2c1.4,0.7,2.7,1.2,3.8,1.4c1.1,0.2,2.2,0.2,3.2-0.1c1-0.3,2.3-0.9,3.7-1.7l-31.9,57.5
		c-3.4,6.2-3.3,9.1,0.2,8.6c3.5-0.5,8.5-3.4,14.9-8.9c7.3-5.9,13.3-12.1,17.7-18.5L393,97c5,2.4,8.7,3.3,11.2,2.8
		c2.6-0.6,4.6-1.2,6.2-2L378.8,155c-3.5,6.4-3.6,9.3-0.2,8.9c2.9-0.5,7.3-3,13.4-7.4c10.7-8,19.7-18.5,27.1-31.6
		c0.5-1,1.1-1.2,1.7-0.8c0.6,0.4,0.7,1,0.2,1.8c-7.6,12.9-16.3,23.5-25.9,31.6c-9.4,8.1-17.6,12.2-24.4,12.2c-3.4,0-5.8-1.7-7.2-5
		C362.1,161.3,362.4,156,364.7,148.8z"/>
	<path fill="#004A8F" d="M444.9,113.6c0.5,2.6,1.9,5.9,4.2,10.1c2.3,4.2,4.4,8.1,6.4,11.7c7.2-0.5,12.8-0.9,17-1.2s7.8-0.8,11-1.4
		c0.3,0,0.5,0,0.7-0.1c0.2-0.1,0.4,0,0.7,0.1c0.2,0.3,0,0.5-0.5,0.5l-28,5.3c1.9,3.7,2.6,7.2,2.2,10.5c-0.5,3.4-1.7,6.3-3.6,8.9
		c-1.9,2.6-4.3,4.7-7.3,6.5c-3,1.8-5.8,3-8.7,3.6c-6.4,1.3-12.6,1-18.6-0.7c-6-1.8-10.7-4.2-14.2-7.2c-3.4-3-5-6.3-4.8-9.8
		c0.2-3.5,3.4-6.4,9.5-8.6c3.4-1.1,6.8-2,10.3-2.5c3.5-0.6,8.3-1.2,14.4-2c-0.8-1.9-2-4.9-3.6-8.9c-1.6-4-2.7-8.2-3.1-12.6
		c-0.5-4.4,0.1-8.6,1.7-12.6s5.3-7,11-8.9c5-1.3,9.4-1.3,13.4,0c2.4,0.8,4.2,2,5.5,3.5s1.7,3.2,1.2,5.1c-0.5,1.9-2,3.8-4.7,5.8
		C454.4,110.5,450.4,112.1,444.9,113.6z M436.3,140.2c-6,0.6-10.8,1.3-14.2,2s-6.8,1.7-10.2,3c-4.2,1.8-6.2,3.9-6.2,6.5
		s1.3,4.8,3.9,6.7c2.7,1.9,6.2,3.1,10.6,3.6c4.4,0.5,8.9-0.5,13.5-2.9C440.1,155.6,440.9,149.3,436.3,140.2z M443.5,110.7
		c4.6-1.6,8-3.1,10.2-4.4c2.1-1.4,3.5-2.6,3.9-3.6c0.5-1,0.3-1.9-0.6-2.5c-0.9-0.6-2-1.1-3.5-1.4c-2.1-0.5-4.3-0.4-6.5,0.2
		c-2.2,0.6-3.8,1.9-4.6,3.8C441.6,105.2,441.9,107.8,443.5,110.7z"/>
</g>
</svg>
