<svg xmlns="http://www.w3.org/2000/svg" viewBox="0 0 800 220">
<g>
<path fill="#004A8F" d="M172.8,94.8c-15.1,27.8-29.1,48.8-41.9,62.9c-19.8,22.4-41.4,37.2-64.8,44.2c-12.4,2.4-22.3,2.4-29.8,0
c-8.5-2.6-14.2-8.1-16.9-16.5c-4-10.4-3.1-22.2,2.5-35.5c7.6-18.3,22.2-34.8,43.7-49.4c-0.8-0.3-1.7-0.6-2.9-1
c-1.1-0.4-1.9-1.2-2.2-2.4c-0.3-0.3-0.6-0.7-0.9-1.1c-1.2-2.1-1.9-4.3-2.1-6.4C56.9,83.2,58.2,77,61.6,71
c9.5-17.2,28.3-29.7,56.5-37.3c27.3-7,57.4-10.8,90.2-11.4c16-0.2,24,0.9,23.8,3.2c-0.2-0.3-1.3-0.4-3.4-0.2h-1.4l-0.9,0.7
c-3.1,1.1-6,3.1-8.9,6.2c-12.1,10.8-25.6,29.4-40.7,55.6c7.8,0,15.7-0.2,23.7-0.7s16.2-1,24.6-1.6l11.4-20.6
C253.1,35,270.3,20,288.2,20c7.5,0,12.4,2.8,14.6,8.5c0.2,0.8-0.1,1.2-0.7,1.4c-0.5,0-0.8-0.3-0.9-0.9c-1.1-2.3-2.9-4-5.5-5.1
s-5.4-1.3-8.5-0.3c-1.8,0.5-3.9,1.5-6.1,3.1s-4.4,3.6-6.5,6.1c-2.1,2.4-4.2,5.1-6.3,8.1c-2.1,3-4,6.1-5.8,9.3L242.8,85
c0.8,0,1.9-0.1,3.3-0.2c1.4-0.2,2.9-0.4,4.3-0.7c1.4-0.3,2.9-0.6,4.2-0.8s2.4-0.4,3-0.6c1.1,0,1.9,0.5,2.5,1.4
c0.8,1.5,0.8,2.9,0.1,4.2c-0.7,1.3-1.6,2.6-2.9,3.8c-1.2,1.2-2.4,2.5-3.7,3.8c-1.2,1.3-2,2.6-2.3,4c-0.8,1.4-1.8,1.9-3.1,1.7
c-1.3-0.2-1.8-1.2-1.5-2.9c0.3-1.8,0.9-3,1.8-3.4c0.9-0.5,1.3-1.4,1.1-3c-1.7,0.2-3.6,0.3-5.7,0.5c-2.1,0.2-4,0.2-5.7,0.2
l-29.8,54.5c-3.4,6.1-2.9,8.9,1.4,8.5c3.4-0.1,8.2-2.3,14.6-6.4c10.5-7,20.1-17.2,28.6-30.4c1.1-1.5,1.8-1.8,2.3-0.9
c0.2,0.3,0.1,0.8-0.2,1.4c-5.6,9.9-12.9,18.8-21.7,26.8c-8.4,7.5-17,12.3-25.9,14.4c-6.6,1.4-11,0.5-13.3-2.7c-4-5.3-3-13.4,3-24.3
l23.3-41L172.8,94.8z M122.2,95.5c-1.4-0.5-2.7-0.8-4.1-1s-1.4-0.5,0-0.8c4.7-1.2,9.3-2.1,13.7-2.5c0-0.5-0.1-0.8-0.2-1.1
c-2.6-7.3-11.3-8.9-26.1-4.8C98.2,87.4,90,91.6,81,98c-1.2,0.9-2.4,1.8-3.4,2.7c1.2,0.8,2.6,1.5,4.1,2.2s3.4,1.3,5.5,1.9
c-2.3,0.5-4.5,0.5-6.6,0.1s-4.3-0.9-6.4-1.5c-16,12.8-28.4,27.5-37.1,44.2c-5.5,11.1-7.5,20.4-6,27.9c0.9,5,2.7,9.1,5.3,12.1
c6.7,7.8,17,9.6,30.9,5.5c24.4-7,53.3-38.5,86.7-94.3c1.2-1.7,2.2-3.1,3-4.3c-3.5,0-7.1,0.1-10.6,0.3c-3.6,0.2-7.4,0.4-11.6,0.6
c-0.2,0.5-0.5,1.2-0.9,2.3c-0.5,1.1-1.2,1.5-2.3,1.4c-0.2,0-0.2-0.2-0.2-0.5c0.2-1.1,0.3-2.1,0.5-3.2
C128.6,95.8,125.4,95.8,122.2,95.5z M198,28.5l-15.1,1.4c-19.7,1.4-40.9,5.6-63.6,12.8c-13.7,3.8-25.4,9.5-35,16.9
c-12.5,9.2-18.4,19.2-17.6,30c0.2,1.7,0.4,3.1,0.7,4.1c0.8,0.3,1.4,0.7,1.8,1c0.5,0.4,1,0.7,1.6,1c11.1-5.3,22.4-9.7,33.9-13
c3.4-0.8,6.9-1.3,10.5-1.6c10.7-1.2,17.2,2,19.7,9.6c4.6-0.3,8.3-0.5,11.2-0.7s5.3-0.3,7.1-0.5s3.3-0.3,4.5-0.3
c1.1-0.1,2.2-0.1,3.1-0.1l1.1-2.1c20.3-32.5,36.2-52.1,47.8-58.8L198,28.5z"/>
<path fill="#004A8F" d="M258.2,120.2c-1.8,3.4-3.2,7.2-4.1,11.7c-0.9,4.4-1,8.5-0.3,12.1c0.7,3.7,2.3,6.6,4.8,8.8s6.4,2.8,11.6,1.7
c8.5-1.4,16.2-6.6,22.9-15.6c6.9-9.5,9.4-19,7.6-28.6c-1.5-6.4-6.8-10.7-15.8-12.8c-0.5-2.3,0.2-4.2,2.1-5.7c0.8-0.9,1.8-1.6,3-1.9
c1.2-0.4,2.5-0.6,3.9-0.8c4.3-0.9,8.5-0.3,12.6,1.8c4,1.4,6.6,4.6,7.8,9.6c2.3,9.8-1.8,21.4-12.1,34.8
c-10.1,13.3-23.5,21.3-40.3,24c-13,2-20.4-1.1-22.2-9.4c-1.4-6.9,1.3-15.6,8-26.1c1.7-2.4,3.7-5,6.2-7.8c2.4-2.7,5-5.5,7.8-8.1
c2.7-2.7,5.6-5.1,8.7-7.4s6.1-4.3,9.2-6.2l2.5,1.6c-4.7,3.1-9.3,6.9-13.7,11.4C263.6,112,260.3,116.3,258.2,120.2z"/>
<path fill="#004A8F" d="M366.2,87.7c5.8,1.2,8.2,5.9,7.3,14c2.1-4.3,3.9-6.6,5.3-7s2.7-0.2,4.1,0.6c1.4,0.8,2.9,1.5,4.7,2.3
c1.8,0.8,4.2,0.2,7.2-1.8L366,147c-4,7.2-3.5,9.8,1.4,8c1.4-0.6,3-1.4,4.8-2.5s4-2.4,6.4-4.1c9.5-7,18.1-17.1,25.9-30.2
c0.5-0.9,1-1.2,1.6-0.8c0.6,0.4,0.7,1,0.2,1.7c-7.3,12.4-15.6,22.4-24.7,30.2c-9,7.8-16.8,11.7-23.3,11.7c-2.9,0-5.1-1.4-6.8-4.1
c-1.6-2.7-1.8-6.6-0.6-11.7c-9,10.5-17.6,15.8-25.9,15.8c-4-0.2-6.9-1.3-8.9-3.5s-3.1-5.1-3.3-8.6c-0.2-3.5,0.3-7.4,1.5-11.7
s3-8.5,5.3-12.8c2.6-4.9,5.6-9.5,9.2-14c3.5-4.4,7.5-8.6,11.9-12.6C349.6,89.7,358.1,86.4,366.2,87.7z M367.1,93
c-3.4,0.3-7.9,3.4-13.7,9.2c-2.9,2.9-5.7,6.2-8.4,9.8c-2.7,3.7-5.2,7.7-7.7,12.1c-9.6,17.2-12.4,27.6-8.5,31.1
c0.6,0.6,1.6,0.9,3,0.9c3.1,0,7.4-3.1,13-9.2c5.6-6.1,11-13.7,16-22.9c8.7-15.6,11.7-25.5,8.9-29.8C369.1,93.5,368.2,93,367.1,93z"
/>
<path fill="#004A8F" d="M592.4,84.1c-1.5-0.5-2.6-0.8-3.3-1.1c-0.7-0.3-0.9-0.5-0.6-0.5c14.2-5.2,27.5-11.1,39.8-17.9
c15.4-8.2,23.1-15,23.1-20.4c0-1.7-2.2-3.1-6.6-4.3c-3.7-0.9-8-1.4-13-1.4c-11.8,0-25.4,2.7-40.9,8.1s-33.2,13.5-53,24.4
c-8.9,4.9-16.7,9.7-23.7,14.5c-6.9,4.8-13,9.4-18.2,13.8c-11.9,10.5-17.9,18.8-17.9,24.9l0.2,4.1c0,0.9,0.3,2,0.9,3.2
c0.6,1.4,1.6,2.3,3.1,2.9c1.4,0.5,3.2,0.8,5.1,0.8c5,0,11.4-0.7,19.1-2.1c7.7-1.4,17.1-3.4,28-6c10.8-2.6,20-4.7,27.6-6.2
s13.5-2.3,18-2.3c3.5,0,7.1,0.5,10.6,1.6c3.6,1.1,7.3,2.5,11.1,4.3c7.3,4,11,8.2,11,12.6l8.5-0.9c3.2-0.5,5.7-0.7,7.6-0.7
c2.1,0,2.9,0.3,2.4,0.8s-1.8,1.1-3.8,1.7c-2,0.6-4.4,1.2-7.3,1.8c-2.9,0.6-5.6,1-8,1.1c-4.3,9.6-20.3,21.7-48.1,36.2
c-13.4,6.9-25.1,12-35.1,15.4s-18.3,5.2-24.8,5.2c-2.1,0-4.2-0.3-6.2-0.8s-4-1.3-6-2.2c-4.1-2.3-6.2-5.3-6.2-8.9
c0-7,11.5-15.3,34.6-24.9c10.5-4.4,21.4-8.3,32.6-11.7c11.2-3.4,23-6.3,35.4-8.9c1.5-3.1,2.3-6,2.3-8.7c0-6.6-4.6-9.8-13.7-9.8
c-3.7,0-9.3,0.7-16.9,2.2c-7.6,1.5-17.5,3.7-29.5,6.8c-11.9,3.1-21.8,5.4-29.8,7c-7.9,1.6-14.1,2.4-18.5,2.4c-3.1,0-6-0.4-8.7-1.3
c-2.7-0.8-5.5-2-8.2-3.5c-5.3-3.1-8-6.9-8-11.4c0-8.8,6.3-19.1,18.8-30.9c6.1-5.3,13-10.6,20.6-15.9s16.2-10.4,25.9-15.4
c21.3-11.5,41-20.1,59.2-25.8c18.2-5.6,35.1-8.5,50.8-8.5c6.6,0,12.1,1.7,16.7,5c3.8,3.2,5.7,6.9,5.7,11c0,6.4-8.1,16.1-24.3,29.1
c-2.6,2-5.4,4-8.4,6.1s-6.2,4.2-9.7,6.3c-4.9,3.4-8.2,5-9.8,5c-1.1,0-2.2-0.6-3.4-1.8c-1.7-0.9-2.5-1.8-2.5-2.5l-1.4-0.7
L592.4,84.1z M586.9,143.8c-12.1,2-23.3,4.6-33.8,7.8s-20.2,7-29.2,11.4c-18,9.6-27,18.6-27,27c0,3.7,2.7,5.5,8.2,5.5
c9.8,0,24-5.7,42.8-17.2C567,166.6,579.9,155.1,586.9,143.8z"/>
<path fill="#004A8F" d="M654.5,157.6c4.6,0,9.2-1.3,14-3.9c4.7-2.6,9.3-5.8,13.8-9.7s8.7-8.2,12.5-12.8c3.8-4.7,7.1-9,9.8-12.9
c0.5-0.9,1-1.2,1.6-0.8c0.6,0.4,0.7,1,0.2,1.7c-2.7,4.6-6.2,9.5-10.3,14.6c-4.1,5.2-8.8,9.9-14,14.2s-10.7,7.8-16.6,10.6
c-5.9,2.8-11.9,4.2-18,4.2c-15.1,0-22.7-7.9-22.7-23.6c0-11.9,4.8-23.7,14.4-35.5c8.8-10.8,16.9-16.2,24-16.2c3.7,0,6.9,1.7,9.6,5
c2.3,3.1,3.4,5.7,3.4,8c0,3.5-3.1,8.5-9.4,15.1c-3.1,2.9-6.4,5.7-10,8.5c-3.6,2.7-7.4,5.3-11.3,7.8l-0.9,4.1l-0.2,4.6
C644.6,151.9,647.9,157.6,654.5,157.6z M670.3,100.8c0-1.5-0.4-2.3-1.1-2.3c-2.6,0-6,2.4-10.1,7.3c-2.3,2.6-4.5,5.8-6.6,9.5
s-4.3,8.1-6.4,12.9c3.1-2,6-4.2,8.9-6.5c2.9-2.4,5.6-5,8.2-7.9C667.9,108.7,670.3,104.3,670.3,100.8z"/>
<path fill="#004A8F" d="M780.3,118.2c0.5-0.9,1-1.2,1.6-0.8c0.6,0.4,0.7,1,0.2,1.7c-7.3,12.4-15.6,22.4-24.7,30.2
c-9,7.8-16.8,11.7-23.3,11.7c-1.8,0-3.4-0.5-4.8-1.6c-1.4-1.1-2.3-2.7-2.9-5c-0.5-2.3-0.5-5.1,0.2-8.6c0.7-3.4,2.3-7.5,4.9-12.2
l17.6-31.6c3.5-6.3,3.5-9.2,0-8.7c-3.2,0.5-7.6,3-13.3,7.6c-6.6,5.2-12.1,11.2-16.5,18.1l-22,39.4c-3.2,0-6.3,0-9.2-0.1
s-6.2,0.9-9.8,2.9l39.8-71.9c0.8,1.1,1.8,1.7,3.2,1.8c1.4,0.2,2.8,0.3,4.3,0.3c1.5,0.1,2.9,0.2,4.1,0.3c1.2,0.2,2,0.7,2.4,1.6
s0.2,2.3-0.6,4.1c-0.8,1.8-2.4,4.5-5,8c11.7-11.7,21.7-17.6,30-17.6c1.7,0,3.2,0.5,4.7,1.6c1.4,1.1,2.4,2.7,3,5
c0.5,2.3,0.5,5.1-0.2,8.6c-0.7,3.4-2.3,7.5-4.7,12.2L741.9,147c-3.4,6.1-3.4,8.9-0.2,8.5c2.7-0.5,7-2.8,12.8-7.1
C764.7,140.8,773.3,130.7,780.3,118.2z"/>
</g>
<g display="none">
<path data-start="0" data-duration="15" d="M83.9,105.2c0,0-15.3-4.2-18.7-8c-3-3.2-2.9-12.3-2.4-16.6c0.6-4.4,4.7-12.6,7.6-16
c3-3.6,10.8-9,14.8-11.5c8.2-5.3,26.1-13.8,35.4-16.9c8.1-2.8,25.2-5.4,33.7-6.5c16.4-2.1,65.8-4.3,65.8-4.3s-12.7,8.9-16.3,12.6
c-11.1,11.7-36.9,53-36.9,53s-25.7,42.5-35.8,55.6c-6.8,8.7-21.4,25.5-30,32.4c-5.2,4.2-16.7,11.3-22.8,14.1
c-4.3,2-13.1,5.7-17.8,6.3c-5.6,0.7-17.3,1.2-22.4-1.1c-3.3-1.5-9.2-6.5-10.6-9.8c-3.2-7.3-5.2-24.1-2.8-31.7
c3.6-11.8,18.2-30.2,26.9-39c6-6,19.8-17.5,27.3-22.1c4.9-2.9,15.1-7.9,20.5-9.8c4-1.4,12.3-3.9,16.5-4.1c2.9-0.2,9.2-0.2,11.7,1.3
c2.1,1.3,5.6,5.4,6.1,7.8c0.4,1.9-0.9,7.8-0.9,7.8"/>
<line data-start="16" data-duration="15" x1="118.6" y1="94" x2="260.2" y2="88.3"/>
<polyline data-start="32" data-duration="15" points="302.8,28.5 294.3,20.8 278.3,23.6 266.3,33.6 247,60.3 221.8,107 198.4,148.7 
199.2,157.8 208.1,158.9 228.3,148.7 243.5,136.2"/>
<path data-start="47" data-duration="15" d="M280.2,95.7c0,0-15.8,11.4-20,16.2c-2.8,3.1-7.1,10.4-9,14.1c-1.8,3.6-5,11.1-5.3,15.1
c-0.2,2.9,0.5,9.1,2.2,11.5c1.6,2.2,6.9,4.9,9.6,5.4c3.2,0.6,9.7-1,12.8-1.9c4.5-1.3,13.2-5.1,16.9-7.8c3.3-2.4,8.6-8.9,11.1-12.2
c2.8-3.7,8.5-11.4,9.8-15.9c1.3-4.6,2.2-15,0-19.3c-1.1-2.2-6-4.3-8.3-5.2c-3.4-1.3-14.2-2.7-14.2-2.7"/>
<path data-start="63" data-duration="15" d="M372.5,101.4c0,0-0.7-8.4-2.8-9.9c-2.4-1.8-9.2-0.9-12.1,0c-4.3,1.3-11.7,6.8-14.8,9.9
c-5.5,5.6-13.9,19.1-17.1,26.2c-2.4,5.4-6.2,16.9-5.9,22.8c0.1,2,1.1,6.4,2.8,7.6c1.6,1.1,5.8,0.5,7.7,0
c3.8-0.9,28.9-17.4,31.4-20.4c3.6-4.3,5.3-11.1,7.5-13.9c7.3-9.5,10.7-23.6,10.7-23.6l5.5,1c0,0-30.3,37.6-29.2,52.6
c0.1,1.4,2,3.9,3.3,4.3c2.2,0.8,6.9-1,9.1-1.9c4.5-2,12.3-8.1,16-11.4c3.7-3.3,10.2-10.9,13.2-14.8c2.3-3,8.2-12.5,8.2-12.5"/>
<path data-start="77" data-duration="30" d="M599.3,85.1c0,0,27.2-13.6,35.4-19.5c4.7-3.4,14-11,16.9-16.1c1.1-1.9,2.6-6.4,2-8.5
c-0.6-2.1-4.3-5.2-6.3-6.1c-4.8-2.1-15.6-1.7-20.9-1.3c-14.3,1.2-42.3,8.2-55.8,12.8c-15,5.2-44.3,18.2-57.6,26.9
c-11.9,7.8-36.4,24.8-42.6,37.6c-2.6,5.3-4.7,19-1.1,23.7c2,2.6,9.4,2.7,12.6,2.8c9.5,0.4,28.4-3.5,37.8-5.2
c13.6-2.5,40.1-13,53.9-12.2c6,0.4,18.4,4,22.8,8.2c2.5,2.4,5.9,9.3,5.2,12.7c-1.7,8-17,18-23.5,23c-7.7,6-24.4,16-33.2,20.2
c-7.8,3.7-19.3,10.4-27.8,11.8c-4,0.7-17.7,1.8-21.1-0.4c-2.5-1.6-5.5-8-4.8-11c0.9-4,9.3-8.1,12.6-10.6c3.2-2.5,9.7-7.4,13.2-9.3
c8.8-4.8,27.5-12.2,37.1-15c18.8-5.3,77-13.3,77-13.3"/>
<path data-start="107" data-duration="15" d="M648.5,130.4c0,0,4.1-3.2,8.8-6.7c3.9-3,10.5-10.5,13-14.8c1.3-2.1,4-6.9,3.5-9.3
c-0.5-2.5-4.3-6.9-6.7-7.4c-4.1-0.8-11.8,4.5-15,7.2c-4.5,3.8-11.3,13.7-13.5,19.1c-2.1,5.2-4.1,16.7-3.7,22.4
c0.3,3.9,2.1,12.1,4.8,15c1.7,1.8,6.8,3.4,9.3,3.7c3.1,0.4,9.4-0.6,12.4-1.5c4.6-1.4,12.9-6.3,16.9-8.9
c4.4-2.9,10.9-11.7,10.9-11.7"/>
<path data-start="122" data-duration="25" d="M690.1,157.4l32.4-61.7c0,0-0.9,15.3,1.5,13c4.8-4.5,10.8-10.4,14.3-12.5
c3.4-2,8.8-6.1,12.6-6.9c1.7-0.4,6.3,1.6,7.4,2.9c2.3,2.9-1.7,11.1-3,14.6c-2.2,5.8-9.9,15.8-12.6,21.4c-2.4,5-7.1,15.1-8.3,20.5
c-0.4,2.1-1.7,7.1-0.2,8.7c1,1,4.5,0.4,5.9,0c3.2-0.9,12.7-3.9,15.5-5.8c4.6-3.1,11.4-12.1,15.2-16.1c4-4.3,11.2-18.1,11.2-18.1"/>
</g>
</svg>
